<?xml version="1.0" standalone="no"?>
<!DOCTYPE svg PUBLIC "-//W3C//DTD SVG 20010904//EN"
 "http://www.w3.org/TR/2001/REC-SVG-20010904/DTD/svg10.dtd">
<svg version="1.0" xmlns="http://www.w3.org/2000/svg"
 width="2613.000000pt" height="4209.000000pt" viewBox="0 0 2613.000000 4209.000000"
 preserveAspectRatio="xMidYMid meet">
<metadata>
Created by potrace 1.10, written by Peter Selinger 2001-2011
</metadata>
<g transform="translate(0.000000,4209.000000) scale(0.100000,-0.100000)"
fill="#000000" stroke="none">
<path d="M3230 41871 c-39 -6 -73 -21 -205 -88 -42 -22 -151 -102 -190 -140
-17 -17 -49 -43 -71 -58 -21 -14 -58 -44 -81 -66 -23 -21 -55 -42 -72 -45 -33
-7 -83 -49 -157 -135 -76 -87 -88 -101 -114 -144 -13 -21 -32 -47 -42 -57 -10
-10 -20 -28 -23 -40 -16 -77 -28 -142 -34 -203 -5 -38 -13 -81 -19 -95 -16
-39 -32 -174 -36 -296 -2 -80 -7 -117 -18 -133 -9 -12 -14 -31 -11 -41 8 -31
-16 -122 -42 -156 -14 -18 -25 -38 -25 -43 0 -6 -13 -35 -30 -64 -53 -95 -88
-223 -90 -329 0 -51 3 -115 8 -143 10 -63 74 -196 121 -255 54 -66 71 -97 65
-113 -3 -8 -1 -18 5 -22 6 -3 11 -22 11 -41 0 -24 4 -34 13 -31 7 2 12 21 12
47 0 24 5 45 12 47 6 2 26 -9 45 -25 18 -16 42 -31 53 -33 15 -3 21 -13 23
-42 3 -37 3 -37 50 -38 71 -3 76 -3 90 -12 6 -5 12 -19 12 -32 0 -13 5 -27 10
-30 6 -3 10 -17 10 -29 0 -19 10 -28 50 -44 35 -15 53 -29 61 -49 21 -50 44
-98 55 -113 19 -25 24 -101 9 -136 -13 -31 -12 -33 8 -36 12 -2 23 -10 25 -19
4 -21 -47 -33 -55 -13 -9 23 -32 16 -48 -16 -16 -31 -15 -33 24 -30 32 3 71
-19 71 -40 0 -27 -183 -160 -219 -160 -33 0 -49 -15 -26 -24 27 -10 16 -41
-30 -86 -25 -24 -45 -49 -45 -56 0 -7 -7 -15 -16 -18 -8 -3 -12 -11 -9 -17 5
-7 14 -3 27 11 11 12 44 37 72 55 28 18 60 42 70 54 11 11 27 21 37 21 10 0
20 4 23 9 11 17 86 50 101 45 20 -8 20 -77 0 -94 -8 -7 -29 -37 -46 -66 -17
-30 -42 -62 -56 -72 -15 -9 -42 -33 -62 -52 -20 -19 -57 -52 -84 -73 -30 -25
-54 -55 -68 -87 -11 -27 -29 -56 -40 -66 -10 -9 -19 -21 -19 -26 0 -4 -7 -16
-15 -25 -8 -10 -38 -45 -67 -78 -28 -33 -59 -64 -68 -68 -9 -5 -25 -25 -36
-45 -16 -32 -71 -110 -151 -217 -39 -52 -133 -194 -133 -201 0 -7 -11 -20 -89
-105 -28 -31 -51 -61 -51 -66 0 -6 -24 -40 -54 -76 -35 -43 -57 -81 -65 -113
-7 -26 -23 -66 -36 -88 -13 -23 -27 -59 -31 -81 -3 -22 -11 -49 -17 -60 -6
-11 -14 -54 -18 -95 -5 -41 -13 -100 -20 -130 -13 -66 -13 -590 1 -604 13 -13
18 22 24 174 5 139 18 214 42 240 26 27 36 -5 41 -127 2 -65 8 -122 13 -127
17 -17 11 -55 -15 -96 -14 -22 -25 -53 -25 -69 0 -16 -6 -31 -15 -35 -8 -3
-15 -17 -15 -31 0 -31 -22 -33 -44 -2 -15 22 -16 22 -31 3 -9 -12 -15 -40 -15
-72 0 -37 -4 -54 -15 -58 -10 -4 -15 -19 -15 -49 0 -27 -6 -49 -15 -57 -8 -7
-15 -23 -15 -36 0 -19 5 -24 25 -24 30 0 34 -25 5 -40 -16 -8 -21 -6 -31 11
-11 22 -11 22 -34 -7 -18 -23 -33 -29 -75 -34 -65 -6 -81 -30 -21 -30 22 0 42
-4 45 -9 3 -4 23 -4 44 2 71 19 96 -16 48 -68 -23 -24 -23 -26 -7 -60 20 -42
31 -44 31 -6 0 23 9 36 42 60 46 34 64 35 61 5 -9 -67 -17 -95 -34 -110 -10
-9 -19 -23 -19 -31 0 -19 -28 -16 -33 5 -3 9 -2 -4 0 -30 4 -30 2 -48 -5 -48
-6 0 -12 6 -15 13 -10 27 -18 -5 -23 -83 -2 -45 -11 -94 -18 -108 -7 -15 -17
-49 -21 -77 -5 -27 -9 -52 -10 -55 -19 -67 -24 -99 -25 -170 -3 -170 9 -234
38 -216 7 4 5 26 -5 62 -11 42 -12 64 -4 87 6 16 11 64 11 106 0 50 5 84 14
97 8 11 17 42 21 69 7 57 11 66 53 155 18 36 32 71 32 78 0 13 24 60 54 104
27 42 86 101 86 87 0 -19 -23 -93 -33 -107 -5 -7 -13 -29 -17 -50 -5 -20 -13
-50 -18 -67 -25 -72 -35 -126 -41 -220 -4 -55 -13 -111 -20 -124 -14 -26 -7
-146 10 -156 5 -4 9 -26 9 -49 0 -27 6 -48 15 -56 8 -7 15 -20 15 -29 0 -41
96 -196 152 -246 35 -32 135 -105 143 -105 18 0 -5 30 -71 93 -81 76 -164 181
-164 207 0 8 -7 23 -15 34 -16 21 -40 99 -52 171 -14 84 5 259 37 340 4 11 21
54 37 95 25 66 31 75 53 75 19 0 26 6 28 25 7 65 14 90 26 90 9 0 16 -29 22
-95 5 -52 8 -99 6 -105 -5 -14 -29 -13 -35 3 -3 6 -6 -7 -6 -29 -1 -37 2 -43
25 -48 21 -6 25 -11 22 -39 -3 -28 -7 -32 -35 -35 -49 -5 -40 -18 25 -38 31
-10 50 -20 41 -22 -11 -2 -16 -15 -17 -45 0 -23 -2 -51 -4 -61 -4 -24 12 -29
36 -11 15 11 16 17 7 29 -9 11 -8 15 5 20 23 9 24 8 24 -20 0 -14 8 -39 17
-54 15 -26 15 -34 3 -72 -17 -54 -28 -68 -51 -68 -12 0 -21 9 -24 28 -4 15
-10 34 -15 43 -5 9 -6 27 -3 40 5 20 3 22 -8 11 -18 -17 -20 -131 -2 -157 7
-11 23 -20 35 -20 30 0 56 -50 57 -109 1 -51 29 -156 42 -156 13 0 19 32 17
93 -2 63 13 88 61 102 20 6 23 4 18 -9 -5 -12 1 -19 17 -26 13 -5 27 -13 30
-19 4 -6 20 -8 36 -4 26 5 30 3 30 -17 0 -23 65 -120 81 -120 5 0 9 -9 9 -19
0 -10 15 -32 33 -48 18 -15 43 -44 57 -63 13 -19 43 -52 67 -73 24 -21 43 -47
43 -58 0 -11 9 -37 19 -58 17 -32 26 -39 60 -44 62 -8 121 -66 121 -118 0 -37
44 -93 85 -109 52 -20 71 -12 128 50 32 36 62 60 74 60 12 0 24 7 27 16 3 8
11 12 17 8 9 -5 7 -11 -6 -20 -13 -9 -19 -28 -20 -60 -1 -25 -7 -49 -12 -53
-15 -9 -25 -48 -18 -71 8 -25 53 -27 62 -2 4 9 16 26 27 38 12 11 31 33 43 50
17 22 24 26 31 16 12 -18 13 -130 1 -137 -5 -4 -9 -16 -9 -29 0 -12 -3 -25 -6
-28 -3 -4 -7 -34 -9 -67 -2 -33 -8 -69 -13 -78 -5 -10 -7 -33 -5 -51 4 -24 -3
-50 -26 -96 -17 -35 -31 -68 -31 -74 0 -17 -40 -83 -82 -134 -21 -26 -38 -49
-38 -52 0 -3 -18 -29 -41 -58 -22 -29 -59 -78 -82 -108 -22 -30 -44 -57 -47
-60 -4 -3 -35 -47 -69 -97 -34 -51 -66 -95 -71 -98 -4 -3 -18 -24 -30 -47 -12
-23 -35 -56 -51 -72 -16 -16 -29 -37 -29 -46 0 -9 -13 -34 -30 -56 -16 -21
-30 -45 -30 -52 0 -12 -16 -49 -41 -92 -5 -8 -12 -22 -15 -30 -3 -8 -9 -22
-14 -30 -5 -8 -21 -40 -37 -70 -35 -68 -95 -130 -153 -159 -79 -40 -170 -144
-196 -224 -4 -12 -17 -38 -29 -57 -28 -46 -55 -119 -55 -151 0 -14 -7 -34 -15
-45 -8 -10 -15 -29 -15 -41 0 -12 -13 -41 -28 -65 -16 -24 -35 -59 -42 -78 -8
-19 -33 -62 -56 -95 -61 -88 -84 -148 -83 -214 2 -112 -2 -175 -13 -188 -5 -7
-14 -27 -18 -45 -11 -43 -28 -93 -50 -143 -65 -147 -99 -258 -100 -328 0 -22
-6 -51 -14 -65 -44 -84 -105 -222 -111 -252 -4 -19 -17 -57 -30 -85 -12 -27
-32 -88 -44 -135 -12 -47 -26 -101 -31 -120 -5 -19 -10 -50 -10 -69 0 -19 -6
-42 -14 -50 -15 -17 -19 -34 -36 -141 -6 -36 -18 -105 -27 -155 -9 -49 -18
-119 -19 -155 -1 -36 -10 -114 -19 -175 -9 -60 -16 -127 -15 -149 0 -21 -4
-63 -10 -95 -15 -73 -34 -505 -29 -646 2 -60 2 -135 1 -165 -14 -411 -16
-1810 -2 -1906 19 -134 0 -460 -31 -519 -31 -58 -31 -129 1 -255 6 -25 14 -58
17 -75 3 -16 10 -32 14 -35 5 -3 13 -40 19 -82 6 -42 15 -91 20 -109 6 -19 10
-50 10 -70 0 -20 7 -56 15 -80 9 -24 15 -71 14 -104 0 -33 6 -114 16 -180 9
-66 18 -145 19 -175 1 -30 6 -61 10 -69 5 -8 13 -59 17 -115 4 -56 13 -139 19
-186 7 -47 13 -110 14 -140 1 -30 7 -65 14 -77 7 -12 12 -39 12 -60 0 -34 15
-129 40 -263 5 -25 14 -61 20 -80 7 -19 15 -53 20 -75 14 -73 72 -279 86 -307
8 -15 14 -42 14 -60 0 -19 11 -67 24 -108 14 -41 35 -118 47 -170 12 -52 28
-107 35 -122 8 -15 14 -38 14 -52 0 -14 6 -43 14 -63 8 -21 24 -70 36 -109 11
-40 30 -80 42 -90 19 -18 124 -19 3525 -22 2405 -1 3510 1 3518 8 22 18 23 59
2 97 -16 31 -19 56 -19 138 0 55 5 129 11 165 15 92 14 152 -6 196 -14 32 -17
67 -15 189 1 83 6 193 12 245 6 52 14 131 18 175 5 44 14 96 20 115 16 49 43
183 51 255 3 33 10 66 15 74 5 8 13 48 17 90 10 96 26 172 39 185 6 6 10 18
10 27 0 26 46 112 85 159 19 23 35 46 35 50 0 5 22 37 48 72 52 70 102 153
102 173 0 18 47 122 59 129 5 3 12 28 16 56 4 27 15 66 26 87 10 20 19 52 19
71 0 18 7 47 16 63 12 24 16 77 20 242 5 221 9 243 56 342 23 50 28 73 28 136
0 57 4 80 15 89 29 24 9 436 -24 498 -6 11 -11 32 -11 46 0 22 -19 72 -51 137
-4 9 -12 34 -18 56 -6 22 -22 57 -36 77 -14 20 -25 44 -25 52 0 8 -12 33 -27
57 -15 23 -36 58 -46 77 -11 19 -34 58 -53 85 -18 28 -37 62 -43 77 -14 37 -7
1197 8 1403 24 318 33 378 80 512 11 34 21 76 21 93 0 17 5 41 11 52 11 20 26
78 48 183 9 41 24 86 48 142 7 17 13 47 13 66 0 19 7 40 15 47 8 7 15 27 15
44 1 17 7 49 15 71 8 22 15 48 15 58 1 85 100 264 155 278 15 5 47 25 69 46
42 40 95 73 116 73 12 0 161 88 170 100 3 4 30 24 60 45 30 21 57 41 60 45 3
3 23 17 45 30 22 13 43 28 46 33 3 5 30 21 60 36 138 71 217 116 248 143 18
16 45 35 60 41 30 12 81 56 81 69 0 5 14 27 32 49 36 45 75 59 161 59 32 0 73
6 91 14 18 7 66 17 107 21 41 4 89 13 108 21 18 8 48 14 65 14 17 0 40 7 50
15 11 8 33 15 50 15 42 0 136 33 136 48 0 6 -6 12 -14 12 -7 0 -21 15 -30 34
-9 19 -27 44 -41 57 -35 34 -33 67 5 80 37 14 38 31 1 78 -36 46 -61 95 -61
119 0 11 -7 25 -15 32 -8 7 -15 20 -15 30 0 10 7 23 15 30 8 7 15 21 15 30 0
10 16 40 36 66 20 26 43 61 51 78 7 17 32 65 53 106 22 41 40 82 40 92 0 9 6
23 14 31 20 19 46 84 46 113 0 13 9 32 21 43 12 11 18 24 14 30 -3 6 1 25 9
43 9 17 16 38 16 47 0 9 8 30 17 46 9 17 20 53 24 80 17 106 26 146 37 157 7
7 12 37 12 68 0 30 4 71 9 90 5 19 12 77 15 128 3 51 11 109 18 128 10 27 9
41 -1 69 -6 19 -11 63 -11 97 2 79 -7 237 -17 302 -7 46 -11 50 -43 59 -22 5
-48 5 -70 -2 -84 -24 -133 -33 -260 -47 -257 -29 -510 -30 -510 -2 0 6 10 8
24 4 14 -3 27 -2 30 3 10 15 72 22 100 11 21 -8 33 -6 52 6 23 16 24 17 6 29
-10 7 -40 16 -67 20 -28 4 -57 13 -65 20 -25 20 -151 54 -205 54 -199 2 -239
-1 -259 -15 -11 -7 -35 -14 -54 -14 -18 0 -45 -6 -60 -14 -15 -7 -73 -16 -130
-19 -56 -3 -108 -10 -115 -15 -7 -5 -31 -13 -54 -17 -46 -7 -55 -26 -30 -57
14 -19 141 -29 323 -27 62 0 114 -4 118 -9 13 -22 -1430 -35 -1486 -13 -18 7
-28 18 -28 32 0 12 -8 23 -20 26 -13 3 -20 14 -20 29 0 24 0 24 119 24 94 0
121 3 131 15 7 9 11 17 9 19 -2 1 -69 -1 -148 -5 -99 -5 -147 -11 -157 -20
-15 -16 -18 -59 -11 -175 4 -73 7 -84 39 -126 27 -34 37 -60 42 -102 4 -30 16
-79 27 -108 10 -29 19 -66 19 -83 0 -16 7 -43 15 -58 8 -15 17 -45 20 -65 8
-48 24 -108 41 -152 7 -19 16 -53 20 -74 4 -22 13 -51 20 -65 8 -14 14 -31 14
-38 0 -7 6 -27 14 -45 8 -18 22 -53 32 -78 29 -75 63 -153 84 -192 22 -41 26
-72 9 -66 -6 2 -21 21 -33 42 -11 22 -29 48 -39 58 -10 11 -25 34 -33 51 -42
90 -69 120 -96 106 -31 -17 -178 -137 -244 -199 -33 -32 -81 -71 -106 -87 -26
-16 -70 -52 -100 -79 -63 -57 -178 -206 -178 -229 0 -8 -13 -42 -30 -75 -16
-33 -30 -65 -30 -72 0 -7 -14 -40 -30 -73 -16 -33 -30 -69 -30 -79 0 -10 -16
-59 -35 -107 -19 -49 -35 -100 -35 -113 0 -14 -4 -28 -10 -31 -5 -3 -10 -16
-10 -28 0 -12 -7 -35 -15 -51 -8 -15 -15 -38 -15 -50 0 -12 -7 -31 -15 -42 -8
-10 -15 -40 -15 -65 0 -25 -7 -54 -15 -65 -8 -10 -15 -32 -15 -47 0 -15 -7
-44 -15 -64 -8 -19 -15 -50 -15 -67 0 -17 -7 -44 -15 -60 -8 -15 -15 -50 -15
-77 0 -27 -6 -66 -14 -86 -25 -69 -39 -206 -40 -413 -1 -285 -15 -579 -32
-679 -8 -46 -14 -111 -14 -145 0 -38 -6 -70 -14 -82 -10 -13 -13 -34 -9 -65 4
-31 0 -55 -11 -77 -9 -17 -21 -66 -26 -109 -6 -43 -15 -87 -20 -98 -5 -11 -11
-42 -14 -70 -12 -111 -18 -142 -36 -165 -19 -26 -20 -25 -86 13 -70 41 -769
734 -879 872 -22 28 -43 52 -46 55 -14 11 -96 118 -122 158 -15 23 -37 48 -48
55 -11 6 -30 29 -41 51 -11 21 -39 63 -64 95 -24 31 -57 73 -74 95 -16 21 -30
43 -30 48 0 16 -58 86 -135 165 -55 55 -83 95 -124 176 -35 69 -54 119 -55
146 -2 33 -10 49 -39 79 -20 21 -37 44 -37 52 0 8 -14 33 -30 54 -17 22 -30
48 -30 57 0 10 -15 39 -32 64 -46 65 -58 87 -58 107 0 10 -13 27 -30 40 -16
12 -30 29 -30 37 0 9 -15 32 -33 52 -94 102 -111 129 -119 192 -12 82 -12 69
0 178 7 62 22 129 43 185 17 49 43 123 57 164 39 113 82 200 119 240 12 13 23
29 23 34 0 5 26 52 59 105 64 105 103 185 119 244 6 21 21 53 34 70 13 18 29
43 35 57 6 14 40 52 77 85 36 33 99 90 139 126 139 126 196 158 294 167 56 4
68 1 146 -36 47 -22 104 -54 128 -71 23 -17 46 -31 51 -31 6 0 24 -10 41 -22
49 -35 248 -148 261 -148 6 0 31 -14 56 -30 25 -16 54 -30 65 -30 11 0 29 -7
39 -15 11 -8 36 -15 56 -15 19 0 44 -6 55 -14 11 -7 53 -16 93 -20 41 -3 84
-12 95 -18 32 -17 245 -11 274 8 12 7 27 14 33 14 17 0 112 76 146 117 41 50
74 116 74 148 0 14 6 36 14 48 8 13 17 67 21 132 8 117 16 144 62 188 39 37
128 56 177 39 51 -19 130 -20 151 -2 25 21 74 131 81 184 5 32 1 52 -14 82
-27 51 -82 111 -107 116 -26 4 -33 44 -8 51 10 3 41 8 68 12 89 11 224 72 252
113 43 64 41 194 -3 243 -26 29 -11 136 27 188 51 71 63 75 242 78 176 4 205
11 261 69 18 19 39 57 50 94 19 59 19 64 3 110 -9 26 -17 65 -17 85 0 36 -47
153 -75 185 -7 8 -15 29 -18 45 -13 71 -35 156 -44 167 -12 17 -29 74 -38 123
-8 45 -30 116 -51 162 -8 17 -14 43 -14 59 0 15 -7 36 -16 45 -15 16 -15 28
-5 96 18 127 27 167 42 193 41 72 77 91 116 60 20 -15 29 -17 39 -9 8 6 21 9
29 5 18 -6 6 -41 -32 -93 -13 -17 -23 -40 -23 -50 0 -11 -5 -24 -12 -31 -9 -9
-8 -12 5 -12 32 0 72 27 147 99 47 44 102 84 148 108 40 20 78 45 83 54 5 10
26 23 46 29 84 26 144 54 154 71 5 11 17 19 26 19 8 0 31 14 50 30 18 17 40
30 47 30 8 0 19 7 26 15 7 8 23 15 36 15 22 0 65 52 112 137 7 13 26 33 43 45
17 13 37 43 49 74 10 29 37 76 60 106 22 29 46 71 52 93 6 22 15 45 19 50 11
16 48 125 60 180 9 44 21 130 33 235 2 19 7 51 11 72 6 32 -8 155 -35 303 -5
28 -12 75 -15 105 -7 62 -31 145 -52 175 -7 11 -13 29 -13 40 0 11 -7 29 -15
39 -8 11 -15 27 -15 37 0 9 -7 19 -15 23 -8 3 -15 15 -15 26 0 76 -217 359
-440 573 -47 45 -105 102 -130 127 -25 25 -59 52 -77 59 -17 7 -42 24 -55 38
-24 26 -137 106 -190 135 -17 9 -42 28 -57 42 -14 13 -53 37 -86 53 -91 43
-193 115 -259 183 l-60 61 3 75 c3 96 -15 143 -91 249 -32 44 -63 85 -68 92
-6 7 -10 22 -10 35 0 14 -17 37 -46 62 -26 23 -79 71 -119 109 -39 37 -75 67
-79 67 -4 0 -44 32 -89 70 -45 39 -110 85 -145 102 -34 17 -68 38 -74 45 -6 7
-19 13 -29 13 -10 0 -24 8 -31 18 -7 10 -29 24 -48 32 -19 7 -40 19 -46 27
-20 23 -158 95 -194 100 -34 5 -95 31 -236 99 -39 19 -76 34 -81 34 -6 0 -25
14 -43 30 -18 17 -36 30 -40 30 -4 0 -31 16 -60 35 -29 19 -58 35 -66 35 -7 0
-33 9 -56 19 -24 11 -77 33 -118 49 -153 61 -187 75 -260 109 -41 19 -82 41
-91 49 -26 23 -218 86 -294 96 -38 5 -119 11 -180 14 -60 2 -140 11 -178 19
-37 8 -78 13 -92 9 -25 -6 -227 29 -277 48 -23 8 -35 6 -74 -16 -58 -33 -144
-35 -144 -4 0 6 -11 23 -25 40 -14 16 -25 36 -25 43 0 7 -11 22 -24 32 -24 18
-24 19 -15 128 10 126 4 211 -18 273 -10 28 -14 62 -11 93 5 48 3 51 -38 94
-24 24 -44 48 -44 53 0 4 -14 21 -31 38 -42 39 -69 95 -69 141 0 33 -5 41 -32
57 -18 11 -50 34 -71 53 -20 18 -42 33 -49 33 -27 0 -120 53 -140 80 -13 19
-31 30 -45 30 -13 0 -36 6 -51 14 -34 18 -111 108 -137 161 -28 58 -42 72
-101 99 -71 33 -126 72 -199 141 -110 104 -156 132 -245 152 -14 3 -30 9 -36
14 -6 5 -44 16 -85 24 -57 13 -119 16 -264 13 -104 -2 -248 0 -320 4 -71 4
-150 3 -175 -1z m-839 -2080 c11 -20 28 -48 37 -63 16 -26 16 -28 -6 -55 -12
-15 -27 -38 -32 -50 -13 -30 -24 -29 -49 5 -11 15 -30 36 -41 47 -16 16 -19
28 -14 54 6 27 9 30 16 17 16 -29 38 1 38 50 0 35 3 42 15 37 9 -3 25 -22 36
-42z m-43 -199 c17 -12 4 -44 -17 -40 -20 4 -28 48 -9 48 7 0 19 -4 26 -8z
m100 -20 c5 -30 -15 -62 -38 -62 -26 0 -27 45 -3 72 20 23 37 19 41 -10z m13
-424 c23 -29 23 -35 0 -41 -23 -6 -35 2 -44 26 -15 40 15 49 44 15z m288 -279
c35 -34 38 -47 15 -56 -18 -7 -59 31 -69 65 -9 33 17 28 54 -9z m14 -114 c14
-19 15 -25 4 -25 -17 0 -49 34 -40 43 10 11 17 8 36 -18z m-823 -2090 c0 -19
-25 -69 -53 -107 -19 -26 -57 -39 -57 -20 0 30 80 142 102 142 4 0 8 -7 8 -15z
m-329 -146 c-5 -14 -7 -37 -4 -51 3 -14 -3 -47 -12 -74 -10 -27 -17 -75 -17
-106 1 -55 -14 -88 -39 -88 -16 0 -22 52 -11 85 7 17 15 60 18 96 4 35 14 82
24 104 10 22 21 49 25 59 4 13 9 16 16 9 6 -6 6 -19 0 -34z m207 -126 c3 -45
-19 -100 -43 -110 -13 -4 -13 -9 1 -33 27 -44 0 -140 -27 -99 -5 8 -7 41 -4
74 3 33 8 89 11 125 6 69 18 93 43 88 11 -2 17 -16 19 -45z m-220 -772 c-4
-76 -50 -185 -94 -226 -50 -46 -58 -13 -17 73 24 50 36 93 59 203 7 32 47 55
53 31 1 -8 1 -45 -1 -81z m-128 -337 c0 -8 -5 -24 -11 -35 -8 -16 -13 -18 -25
-8 -15 12 -19 41 -7 52 13 13 43 7 43 -9z m408 -292 c2 -15 -2 -22 -12 -22
-11 0 -16 9 -16 26 0 31 23 28 28 -4z m-28 -81 c0 -16 -8 -39 -19 -52 l-18
-23 -12 21 c-6 12 -9 29 -6 37 3 9 7 23 10 31 2 8 14 15 25 15 15 0 20 -7 20
-29z m9088 -4063 c-2 -6 -17 -12 -34 -13 -16 -2 -39 -6 -51 -10 -17 -5 -23 -3
-23 8 0 11 12 17 43 20 23 2 48 4 55 5 8 1 12 -3 10 -10z m-77 -153 c-1 -15
-24 -12 -29 3 -3 9 2 13 12 10 10 -1 17 -7 17 -13z m142 -200 c20 -14 37 -30
37 -36 0 -22 -21 -49 -38 -49 -10 0 -23 -5 -29 -11 -16 -16 -285 -18 -290 -3
-3 10 78 69 152 111 11 7 45 12 75 12 43 1 63 -4 93 -24z"/>
<path d="M2510 38494 c0 -9 5 -14 12 -12 18 6 21 28 4 28 -9 0 -16 -7 -16 -16z"/>
<path d="M2352 38387 c-26 -15 -19 -27 15 -27 16 0 23 6 23 20 0 23 -6 24 -38
7z"/>
<path d="M2317 38092 c-19 -21 -22 -32 -8 -32 5 0 16 11 25 25 19 29 7 34 -17
7z"/>
<path d="M1350 34156 c0 -22 3 -27 11 -19 8 8 8 16 0 30 -9 16 -10 14 -11 -11z"/>
<path d="M11250 33180 c0 -5 4 -10 10 -10 5 0 25 -13 43 -30 40 -35 53 -37 67
-11 16 31 12 41 -15 41 -14 0 -25 5 -25 10 0 6 -18 10 -40 10 -22 0 -40 -4
-40 -10z"/>
<path d="M11025 33145 c-16 -8 -45 -14 -63 -15 -18 0 -46 -7 -61 -15 -18 -9
-42 -12 -64 -8 -24 4 -43 0 -58 -11 -15 -10 -44 -16 -79 -16 -30 0 -71 -4 -90
-10 -19 -5 -53 -12 -74 -14 -51 -6 -67 -22 -35 -34 16 -7 39 -5 69 5 25 8 83
18 130 23 47 4 105 15 129 24 24 9 47 13 52 10 5 -2 18 0 30 7 12 6 52 13 88
16 71 5 104 17 98 36 -5 17 -37 18 -72 2z"/>
<path d="M11208 33148 c9 -9 15 -9 24 0 9 9 7 12 -12 12 -19 0 -21 -3 -12 -12z"/>
<path d="M10267 33140 c-27 -17 -10 -30 38 -30 39 0 65 13 52 26 -11 11 -73
14 -90 4z"/>
<path d="M10145 33130 c-18 -7 -18 -9 -3 -15 22 -9 54 -3 51 10 -3 13 -24 16
-48 5z"/>
<path d="M10370 33035 c-14 -8 -48 -14 -75 -15 -30 0 -60 -7 -74 -16 -16 -12
-37 -15 -74 -11 -28 2 -67 0 -86 -6 -38 -10 -52 -12 -190 -24 -87 -8 -116 -26
-63 -38 16 -3 42 -3 57 1 16 4 56 8 89 10 117 6 271 21 326 33 100 21 181 51
177 66 -5 16 -60 16 -87 0z"/>
<path d="M9551 32916 c-19 -23 3 -29 77 -22 101 10 127 17 111 27 -24 15 -175
11 -188 -5z"/>
<path d="M9260 32890 c-8 -5 -22 -7 -32 -4 -9 2 -19 0 -23 -6 -3 -5 -36 -10
-73 -11 -101 -1 -181 -14 -158 -24 31 -14 266 2 310 20 30 13 36 19 25 26 -18
11 -30 11 -49 -1z"/>
<path d="M9383 32893 c-23 -9 -13 -23 16 -23 37 0 62 10 55 21 -5 9 -50 11
-71 2z"/>
<path d="M8904 32839 c-11 -18 11 -32 25 -16 9 12 8 16 -3 20 -9 4 -18 1 -22
-4z"/>
<path d="M9639 32781 c-19 -16 -20 -20 -8 -21 17 0 45 27 37 35 -3 3 -16 -3
-29 -14z"/>
</g>
</svg>
